<svg width="131" height="76" viewBox="0 0 131 76" fill="none" xmlns="http://www.w3.org/2000/svg">
<path d="M19.6554 5.43291C19.6435 5.43128 19.6314 5.43039 19.6194 5.4289C19.6158 5.42861 19.6122 5.42816 19.6087 5.42757C19.0207 5.3529 18.4252 5.31461 17.8371 5.31461H13.6183C12.7618 5.31461 11.9178 5.41762 11.098 5.61816L5.71563 0.443917C5.08239 -0.164827 4.07524 -0.145085 3.4665 0.4883C2.85761 1.12154 2.8775 2.12869 3.51088 2.73743L7.91786 6.97399C7.28477 7.37759 6.69769 7.84933 6.16258 8.38089L2.69314 5.04608C2.05976 4.43719 1.05275 4.45723 0.443862 5.09047C-0.164882 5.7237 -0.144989 6.73085 0.488246 7.33959L4.2507 10.9563C3.44498 12.4741 3.02237 14.1618 3.02237 15.9089V22.9925V31.4172V61.6258V74.4091C3.02237 74.9397 3.28689 75.4351 3.7276 75.7305C3.99346 75.9087 4.30235 75.9998 4.61333 75.9998C4.81773 75.9998 5.02332 75.9603 5.21777 75.8803C9.57917 74.0876 12.5096 69.3085 12.5096 63.9879C12.5096 63.2306 12.4503 62.4793 12.3346 61.7423C15.9479 60.3107 19.0663 57.9186 21.4119 54.7579C24.0997 51.1362 25.5204 46.8313 25.5204 42.3089C25.5204 37.6173 23.9331 33.049 21.0408 29.3771V28.8718C24.9248 28.2196 28.8712 25.3893 29.7832 21.718H31.4142C32.2928 21.718 33.005 21.0058 33.005 20.1272V18.7767C33.005 11.5873 26.0737 6.25229 19.6554 5.43291ZM6.20399 71.537V62.6454C7.1531 62.1679 8.05085 61.5838 8.8919 60.8968C8.91372 60.9727 8.93851 61.0471 8.9587 61.1237C9.20407 62.045 9.32831 63.0088 9.32831 63.9884C9.32816 67.011 8.13472 69.7831 6.20399 71.537ZM22.339 42.3095C22.339 49.5298 18.0358 55.9139 11.4827 58.6557C11.4446 58.5616 11.4058 58.4675 11.3656 58.3744C13.936 55.1317 15.3412 50.9659 15.3412 46.5217C15.3412 43.7552 14.8012 41.1074 13.7362 38.6514C13.3865 37.8453 12.4495 37.4753 11.6438 37.825C10.8378 38.1744 10.4677 39.1114 10.8173 39.9174C11.7079 41.9713 12.1596 44.1933 12.1596 46.5217C12.1596 50.5063 10.7546 54.3516 8.30498 57.0713C7.65616 57.792 6.95375 58.4182 6.20369 58.9464V31.4175V22.9928V15.9092C6.20369 14.3586 6.67647 12.8753 7.57155 11.6183C8.47316 10.3505 9.72152 9.41268 11.1833 8.90547C11.9617 8.63397 12.7808 8.49637 13.6183 8.49637H17.8371C17.8443 8.49637 17.8519 8.49667 17.8593 8.49667V20.128V26.1367C17.6208 25.9409 17.3793 25.7487 17.1321 25.5635C16.4291 25.0365 15.4321 25.1791 14.9051 25.8821C14.3782 26.5851 14.5207 27.5822 15.2235 28.1092C16.3331 28.941 17.3441 29.8999 18.2288 30.9593C20.8794 34.1341 22.339 38.1651 22.339 42.3095ZM21.0409 25.6268V21.7186H26.4156C25.5362 23.5615 23.27 25.0893 21.0409 25.6268ZM28.3888 18.5371H21.0411V8.96083C25.4789 10.2252 29.6769 13.9748 29.82 18.5371H28.3888Z" fill="#E1E1E6"/>
<path d="M11.3621 34.6639C11.1538 34.401 10.9361 34.1418 10.7144 33.8936C10.1292 33.2384 9.12364 33.1816 8.46829 33.7669C7.81308 34.3523 7.75623 35.3578 8.34167 36.013C8.52113 36.214 8.69762 36.4241 8.8664 36.6374C9.18034 37.0344 9.6454 37.2413 10.1154 37.2413C10.4609 37.2413 10.8089 37.1293 11.101 36.8982C11.7902 36.3532 11.9068 35.3529 11.3621 34.6639Z" fill="#E1E1E6"/>
<path d="M14.32 12.696C13.4414 12.696 12.7292 13.4083 12.7292 14.2868V15.3192C12.7292 16.1978 13.4414 16.91 14.32 16.91C15.1986 16.91 15.9108 16.1978 15.9108 15.3192V14.2868C15.9108 13.4083 15.1986 12.696 14.32 12.696Z" fill="#E1E1E6"/>
<path d="M58.5221 46.4999V29.0454H65.4084C66.7323 29.0454 67.8601 29.2982 68.7919 29.8039C69.7238 30.3039 70.434 30.9999 70.9226 31.892C71.4169 32.7783 71.6641 33.801 71.6641 34.9601C71.6641 36.1192 71.4141 37.142 70.9141 38.0283C70.4141 38.9147 69.6897 39.605 68.7408 40.0993C67.7976 40.5937 66.6556 40.8408 65.3147 40.8408H60.9255V37.8834H64.7181C65.4283 37.8834 66.0135 37.7613 66.4738 37.517C66.9397 37.267 67.2863 36.9232 67.5135 36.4857C67.7465 36.0425 67.863 35.534 67.863 34.9601C67.863 34.3806 67.7465 33.8749 67.5135 33.4431C67.2863 33.0056 66.9397 32.6675 66.4738 32.4289C66.0078 32.1846 65.4169 32.0624 64.701 32.0624H62.2124V46.4999H58.5221ZM77.3743 46.7471C76.5391 46.7471 75.7948 46.6022 75.1414 46.3124C74.488 46.017 73.9709 45.5823 73.5902 45.0084C73.2152 44.4289 73.0277 43.7073 73.0277 42.8437C73.0277 42.1164 73.1613 41.5056 73.4283 41.0113C73.6953 40.517 74.059 40.1192 74.5192 39.8181C74.9794 39.517 75.5022 39.2897 76.0874 39.1363C76.6783 38.9829 77.2976 38.8749 77.9453 38.8124C78.7067 38.7329 79.3203 38.659 79.7863 38.5908C80.2522 38.517 80.5902 38.409 80.8005 38.267C81.0107 38.1249 81.1158 37.9147 81.1158 37.6363V37.5851C81.1158 37.0454 80.9453 36.6277 80.6044 36.3323C80.2692 36.0368 79.7919 35.8891 79.1726 35.8891C78.5192 35.8891 77.9993 36.034 77.613 36.3238C77.2266 36.6079 76.9709 36.9658 76.8459 37.3976L73.488 37.1249C73.6584 36.3295 73.9936 35.642 74.4936 35.0624C74.9936 34.4772 75.6385 34.0283 76.4283 33.7158C77.2238 33.3976 78.1442 33.2385 79.1897 33.2385C79.9169 33.2385 80.613 33.3238 81.2777 33.4942C81.9482 33.6647 82.5419 33.9289 83.059 34.2868C83.5817 34.6448 83.9936 35.105 84.2948 35.6675C84.5959 36.2243 84.7465 36.892 84.7465 37.6704V46.4999H81.3033V44.6846H81.201C80.9908 45.0937 80.7096 45.4545 80.3573 45.767C80.005 46.0738 79.5817 46.3152 79.0874 46.4914C78.5931 46.6618 78.0221 46.7471 77.3743 46.7471ZM78.4141 44.2414C78.9482 44.2414 79.4198 44.1363 79.8289 43.926C80.238 43.7101 80.559 43.4204 80.7919 43.0567C81.0249 42.6931 81.1414 42.2812 81.1414 41.8209V40.4317C81.0277 40.5056 80.8715 40.5738 80.6726 40.6363C80.4794 40.6931 80.2607 40.7471 80.0164 40.7982C79.7721 40.8437 79.5277 40.8863 79.2834 40.926C79.0391 40.9601 78.8175 40.9914 78.6186 41.0198C78.1925 41.0823 77.8203 41.1817 77.5022 41.3181C77.184 41.4545 76.9368 41.6391 76.7607 41.8721C76.5846 42.0993 76.4965 42.3834 76.4965 42.7243C76.4965 43.2187 76.6755 43.5965 77.0334 43.8579C77.3971 44.1135 77.8573 44.2414 78.4141 44.2414ZM87.5632 46.4999V33.409H91.0831V35.6931H91.2195C91.4581 34.8806 91.8587 34.267 92.4212 33.8522C92.9837 33.4317 93.6314 33.2215 94.3644 33.2215C94.5462 33.2215 94.7422 33.2329 94.9524 33.2556C95.1627 33.2783 95.3473 33.3096 95.5064 33.3493V36.5709C95.336 36.5198 95.1002 36.4743 94.799 36.4346C94.4979 36.3948 94.2223 36.3749 93.9723 36.3749C93.4382 36.3749 92.961 36.4914 92.5405 36.7243C92.1257 36.9516 91.7962 37.2698 91.5519 37.6789C91.3132 38.088 91.1939 38.5596 91.1939 39.0937V46.4999H87.5632ZM97.3836 46.4999V33.409H100.903V35.6931H101.04C101.278 34.8806 101.679 34.267 102.242 33.8522C102.804 33.4317 103.452 33.2215 104.185 33.2215C104.367 33.2215 104.563 33.2329 104.773 33.2556C104.983 33.2783 105.168 33.3096 105.327 33.3493V36.5709C105.156 36.5198 104.92 36.4743 104.619 36.4346C104.318 36.3948 104.043 36.3749 103.793 36.3749C103.259 36.3749 102.781 36.4914 102.361 36.7243C101.946 36.9516 101.617 37.2698 101.372 37.6789C101.134 38.088 101.014 38.5596 101.014 39.0937V46.4999H97.3836ZM112.509 46.7556C111.185 46.7556 110.041 46.4743 109.075 45.9118C108.114 45.3437 107.373 44.5539 106.85 43.5425C106.327 42.5255 106.066 41.3465 106.066 40.0056C106.066 38.6533 106.327 37.4715 106.85 36.4601C107.373 35.4431 108.114 34.6533 109.075 34.0908C110.041 33.5226 111.185 33.2385 112.509 33.2385C113.833 33.2385 114.975 33.5226 115.935 34.0908C116.901 34.6533 117.646 35.4431 118.168 36.4601C118.691 37.4715 118.952 38.6533 118.952 40.0056C118.952 41.3465 118.691 42.5255 118.168 43.5425C117.646 44.5539 116.901 45.3437 115.935 45.9118C114.975 46.4743 113.833 46.7556 112.509 46.7556ZM112.526 43.9431C113.129 43.9431 113.631 43.7726 114.035 43.4317C114.438 43.0851 114.742 42.6135 114.947 42.017C115.157 41.4204 115.262 40.7414 115.262 39.98C115.262 39.2187 115.157 38.5397 114.947 37.9431C114.742 37.3465 114.438 36.8749 114.035 36.5283C113.631 36.1817 113.129 36.0084 112.526 36.0084C111.918 36.0084 111.407 36.1817 110.992 36.5283C110.583 36.8749 110.273 37.3465 110.063 37.9431C109.859 38.5397 109.756 39.2187 109.756 39.98C109.756 40.7414 109.859 41.4204 110.063 42.017C110.273 42.6135 110.583 43.0851 110.992 43.4317C111.407 43.7726 111.918 43.9431 112.526 43.9431ZM128.276 33.409V36.1363H120.393V33.409H128.276ZM122.183 30.2726H125.813V42.4772C125.813 42.8124 125.864 43.0738 125.967 43.2613C126.069 43.4431 126.211 43.5709 126.393 43.6448C126.58 43.7187 126.796 43.7556 127.041 43.7556C127.211 43.7556 127.381 43.7414 127.552 43.713C127.722 43.6789 127.853 43.6533 127.944 43.6363L128.515 46.338C128.333 46.3948 128.077 46.4601 127.748 46.534C127.418 46.6135 127.018 46.6618 126.546 46.6789C125.671 46.713 124.904 46.5965 124.245 46.3295C123.592 46.0624 123.083 45.6476 122.719 45.0851C122.356 44.5226 122.177 43.8124 122.183 42.9545V30.2726Z" fill="white"/>
</svg>
